<?xml version="1.0" encoding="iso-8859-1"?>
<!-- Generator: Adobe Illustrator 19.0.0, SVG Export Plug-In . SVG Version: 6.00 Build 0)  -->
<svg version="1.1" id="Layer_1" xmlns="http://www.w3.org/2000/svg" xmlns:xlink="http://www.w3.org/1999/xlink" x="0px" y="0px"
	 viewBox="0 0 512 512" style="enable-background:new 0 0 512 512;" xml:space="preserve">
<g>
	<g>
		<path d="M467,181H331l27-36c3.409-4.545,3.957-10.626,1.417-15.708C356.875,124.21,351.682,121,346,121h-45V15
			c0-8.284-6.716-15-15-15h-60c-8.284,0-15,6.716-15,15v106h-45c-5.682,0-10.875,3.21-13.417,8.292
			c-2.541,5.082-1.992,11.163,1.417,15.708l27,36H45c-24.813,0-45,20.187-45,45v241c0,24.813,20.187,45,45,45h422
			c24.813,0,45-20.187,45-45V226C512,201.187,491.813,181,467,181z M226,151c8.284,0,15-6.716,15-15V30h30v106
			c0,8.284,6.716,15,15,15h30l-60,80l-60-80H226z M203.5,211l40.5,54c6.002,8.001,18.011,7.984,24,0l40.5-54.1h150.38
			c-3.288,2.863-189.602,165.219-193.002,168.18c-7.201,6.301-12.555,6.3-19.782-0.023C219.194,355.629,73.246,228.528,53.12,211
			H203.5z M30,462.277v-231.63l132.614,115.49L30,462.277z M53.014,482l132.431-115.98l40.922,35.638
			c18.194,15.92,40.354,16.548,59.239,0.023l40.948-35.661L458.986,482H53.014z M482,462.277l-132.614-116.14L482,230.647V462.277z"
			/>
	</g>
</g>
<g>
</g>
<g>
</g>
<g>
</g>
<g>
</g>
<g>
</g>
<g>
</g>
<g>
</g>
<g>
</g>
<g>
</g>
<g>
</g>
<g>
</g>
<g>
</g>
<g>
</g>
<g>
</g>
<g>
</g>
</svg>
